<?xml version="1.0" encoding="UTF-8" standalone="no"?>
<!-- Created with Inkscape (http://www.inkscape.org/) -->

<svg
   version="1.1"
   id="svg1"
   width="64"
   height="64"
   viewBox="0 0 64 64"
   xmlns="http://www.w3.org/2000/svg"
   xmlns:svg="http://www.w3.org/2000/svg">
  <defs
     id="defs1" />
  <g
     id="g1"
     style="fill:#f0e6d2;fill-opacity:1;stroke:#f0e6d2;stroke-opacity:1">
    <path
       id="path1"
       style="fill:#f0e6d2;fill-opacity:1;stroke:#f0e6d2;stroke-width:0.377953;stroke-dasharray:none;stroke-opacity:1"
       d="m 28.027344,14.65625 c -0.174942,-0.0071 -0.342336,-0.0046 -0.486328,0.0039 -0.801225,0.04708 -1.731751,0.288516 -1.923828,1.382813 -0.138071,0.786645 0.321378,2.297274 0.769531,3.220703 0.65375,1.347056 3.281897,3.976839 3.341797,3.943359 l 0.002,-0.002 h 0.002 v -0.002 l 0.002,-0.002 c 0.09095,-0.19886 -0.826889,-3.50058 -0.199219,-6.125 0.213337,-0.892019 0.06471,-1.851806 -0.197265,-2.109375 -0.196485,-0.193181 -0.785723,-0.289335 -1.310547,-0.310547 z m 7.986328,0 c -0.524824,0.02121 -1.114062,0.117366 -1.310547,0.310547 -0.261979,0.257569 -0.410603,1.219309 -0.197266,2.111328 0.62517,2.613964 -0.281831,5.898488 -0.199218,6.121094 v 0.002 l 0.002,0.002 v 0.002 l 0.002,0.002 h 0.002 c 0.0599,0.03348 2.69,-2.596303 3.34375,-3.943359 0.448153,-0.923429 0.905648,-2.434058 0.767578,-3.220703 C 38.231751,14.948672 37.301225,14.707233 36.5,14.660156 c -0.143992,-0.0085 -0.311387,-0.01098 -0.486328,-0.0039 z m -16.06836,0.03125 c -0.228372,0.0029 -0.447785,0.0161 -0.634765,0.03711 -1.040426,0.116887 -2.233891,0.496775 -2.408203,1.935547 -0.125299,1.034274 0.574841,2.968831 1.222656,4.140625 0.945006,1.709364 4.553206,4.954 4.628906,4.90625 l 0.002,-0.002 0.002,-0.002 v -0.002 c 0.1173,-0.23445 -1.319876,-4.488761 -0.681734,-7.964704 C 22.292209,16.559573 22.030995,15.317346 21.671875,15 21.402533,14.761998 20.63043,14.67874 19.945312,14.6875 Z m 24.152344,0 C 43.412538,14.6787 42.638483,14.762 42.369141,15 c -0.35912,0.317346 -0.620334,1.559573 -0.404297,2.736328 0.633077,3.448357 -0.777722,7.663285 -0.685547,7.958984 4.17e-4,0.0011 0.0034,0.0049 0.0039,0.0059 l 0.002,0.002 0.002,0.002 0.002,0.002 c 0.0757,0.04775 3.681948,-3.196886 4.626954,-4.90625 0.647815,-1.171794 1.349908,-3.106351 1.224609,-4.140625 -0.174312,-1.438772 -1.36973,-1.81866 -2.410156,-1.935547 -0.18698,-0.02101 -0.40444,-0.03419 -0.632813,-0.03711 z m -33.326172,0.07617 c -0.420839,0.01492 -0.822255,0.06065 -1.1660152,0.130859 -1.9128082,0.390697 -4.0981217,1.60665 -4.3574219,6.09375 -0.1864005,3.225596 1.188965,9.234794 2.4335937,12.869141 1.8156097,5.301627 8.6047274,15.316732 8.7421874,15.166016 0.309456,-0.339295 -2.634615,-13.798279 -1.591797,-24.816407 0.347522,-3.671824 -0.187626,-7.5341 -0.863281,-8.513672 -0.506741,-0.734678 -1.934747,-0.97445 -3.197266,-0.929687 z m 42.498047,0 c -1.262518,-0.04476 -2.690524,0.195009 -3.197265,0.929687 -0.675655,0.979572 -1.210804,4.841848 -0.863282,8.513672 1.042818,11.018128 -1.901253,24.479065 -1.591796,24.81836 0.137459,0.150716 6.926578,-9.866342 8.742187,-15.167969 1.244629,-3.634347 2.621948,-9.643545 2.435547,-12.869141 -0.2593,-4.4871 -2.444614,-5.703053 -4.357422,-6.09375 -0.34376,-0.07021 -0.747129,-0.115938 -1.167969,-0.130859 z" />
  </g>
</svg>
